# Created by Kenney (www.kenney.nl)

mtllib sun-umbrella.mtl

v 4 3 3.5
v 4 3 -3.5
v 2 3 3.5
v 2 3 -3.5
v 2 4 -3.5
v 2 4 3.5
v 4 4 -3.5
v 4 4 3.5
v 3 4 2.5
v 3 4 -2.5
v 2 4 2.5
v 2 4 -2.5
v 2 5 -2.5
v 2 5 2.5
v 3 5 -2.5
v 3 5 2.5
v 2 5 1.5
v 2 5 -1.5
v 1 5 1.5
v 1 5 -1.5
v 1 6 -1.5
v 1 6 1.5
v 2 6 -1.5
v 2 6 1.5
v -1 4 2.5
v -1 4 -2.5
v -1 5 -2.5
v -1 5 2.5
v 1 6 0.5
v 1 6 -0.5
v 0 6 0.5
v 0 6 -0.5
v 0 7 -0.5
v 0 7 0.5
v 1 7 -0.5
v 1 7 0.5
v 1 3 3.5
v 1 3 -3.5
v -1 3 3.5
v -1 3 -3.5
v -1 4 -3.5
v -1 4 3.5
v 1 4 -3.5
v 1 4 3.5
v 1 -3 0.5
v 1 -3 -0.5
v 0 -3 0.5
v 0 -3 -0.5
v 0 3 -0.5
v 0 3 0.5
v 1 3 -0.5
v 1 3 0.5
v 0 5 1.5
v 0 5 -1.5
v -1 5 1.5
v -1 5 -1.5
v -1 6 -1.5
v -1 6 1.5
v 0 6 -1.5
v 0 6 1.5
v -2 4 2.5
v -2 4 -2.5
v -2 5 -2.5
v -2 5 2.5
v -2 3 3.5
v -2 3 -3.5
v -3 3 3.5
v -3 3 -3.5
v -3 4 -3.5
v -3 4 3.5
v -2 4 -3.5
v -2 4 3.5

vn 0 -1 0
vn -1 0 0
vn 0 0 -1
vn 0 0 1
vn 1 0 0
vn 0 1 0

vt 0.0625 0.0625
vt 0.1875 0.0625
vt 0.3125 0.0625
vt 0.4375 0.0625

usemtl palette(Clone)

f 3/1/1 2/1/1 1/1/1
f 2/1/1 3/1/1 4/1/1
f 3/1/2 5/1/2 4/1/2
f 5/1/2 3/1/2 6/1/2
f 5/1/3 2/1/3 4/1/3
f 2/1/3 5/1/3 7/1/3
f 8/1/4 3/1/4 1/1/4
f 3/1/4 8/1/4 6/1/4
f 8/1/5 2/1/5 7/1/5
f 2/1/5 8/1/5 1/1/5
f 5/1/6 8/1/6 7/1/6
f 8/1/6 5/1/6 6/1/6
f 11/1/1 10/1/1 9/1/1
f 10/1/1 11/1/1 12/1/1
f 11/1/2 13/1/2 12/1/2
f 13/1/2 11/1/2 14/1/2
f 13/1/3 10/1/3 12/1/3
f 10/1/3 13/1/3 15/1/3
f 16/1/4 11/1/4 9/1/4
f 11/1/4 16/1/4 14/1/4
f 16/1/5 10/1/5 15/1/5
f 10/1/5 16/1/5 9/1/5
f 13/1/6 16/1/6 15/1/6
f 16/1/6 13/1/6 14/1/6
f 19/1/1 18/1/1 17/1/1
f 18/1/1 19/1/1 20/1/1
f 19/1/2 21/1/2 20/1/2
f 21/1/2 19/1/2 22/1/2
f 21/1/3 18/1/3 20/1/3
f 18/1/3 21/1/3 23/1/3
f 24/1/4 19/1/4 17/1/4
f 19/1/4 24/1/4 22/1/4
f 24/1/5 18/1/5 23/1/5
f 18/1/5 24/1/5 17/1/5
f 21/1/6 24/1/6 23/1/6
f 24/1/6 21/1/6 22/1/6
f 25/2/1 12/2/1 11/2/1
f 12/2/1 25/2/1 26/2/1
f 25/2/2 27/2/2 26/2/2
f 27/2/2 25/2/2 28/2/2
f 27/2/3 12/2/3 26/2/3
f 12/2/3 27/2/3 13/2/3
f 14/2/4 25/2/4 11/2/4
f 25/2/4 14/2/4 28/2/4
f 14/2/5 12/2/5 13/2/5
f 12/2/5 14/2/5 11/2/5
f 27/2/6 14/2/6 13/2/6
f 14/2/6 27/2/6 28/2/6
f 31/2/1 30/2/1 29/2/1
f 30/2/1 31/2/1 32/2/1
f 31/2/2 33/2/2 32/2/2
f 33/2/2 31/2/2 34/2/2
f 33/2/3 30/2/3 32/2/3
f 30/2/3 33/2/3 35/2/3
f 36/2/4 31/2/4 29/2/4
f 31/2/4 36/2/4 34/2/4
f 36/2/5 30/2/5 35/2/5
f 30/2/5 36/2/5 29/2/5
f 33/2/6 36/2/6 35/2/6
f 36/2/6 33/2/6 34/2/6
f 39/2/1 38/2/1 37/2/1
f 38/2/1 39/2/1 40/2/1
f 39/2/2 41/2/2 40/2/2
f 41/2/2 39/2/2 42/2/2
f 41/2/3 38/2/3 40/2/3
f 38/2/3 41/2/3 43/2/3
f 44/2/4 39/2/4 37/2/4
f 39/2/4 44/2/4 42/2/4
f 44/2/5 38/2/5 43/2/5
f 38/2/5 44/2/5 37/2/5
f 41/2/6 44/2/6 43/2/6
f 44/2/6 41/2/6 42/2/6
f 47/3/1 46/3/1 45/3/1
f 46/3/1 47/3/1 48/3/1
f 47/3/2 49/3/2 48/3/2
f 49/3/2 47/3/2 50/3/2
f 49/3/3 46/3/3 48/3/3
f 46/3/3 49/3/3 51/3/3
f 52/3/4 47/3/4 45/3/4
f 47/3/4 52/3/4 50/3/4
f 52/3/5 46/3/5 51/3/5
f 46/3/5 52/3/5 45/3/5
f 49/3/6 52/3/6 51/3/6
f 52/3/6 49/3/6 50/3/6
f 55/4/1 54/4/1 53/4/1
f 54/4/1 55/4/1 56/4/1
f 55/4/2 57/4/2 56/4/2
f 57/4/2 55/4/2 58/4/2
f 57/4/3 54/4/3 56/4/3
f 54/4/3 57/4/3 59/4/3
f 60/4/4 55/4/4 53/4/4
f 55/4/4 60/4/4 58/4/4
f 60/4/5 54/4/5 59/4/5
f 54/4/5 60/4/5 53/4/5
f 57/4/6 60/4/6 59/4/6
f 60/4/6 57/4/6 58/4/6
f 61/4/1 26/4/1 25/4/1
f 26/4/1 61/4/1 62/4/1
f 61/4/2 63/4/2 62/4/2
f 63/4/2 61/4/2 64/4/2
f 63/4/3 26/4/3 62/4/3
f 26/4/3 63/4/3 27/4/3
f 28/4/4 61/4/4 25/4/4
f 61/4/4 28/4/4 64/4/4
f 28/4/5 26/4/5 27/4/5
f 26/4/5 28/4/5 25/4/5
f 63/4/6 28/4/6 27/4/6
f 28/4/6 63/4/6 64/4/6
f 67/4/1 66/4/1 65/4/1
f 66/4/1 67/4/1 68/4/1
f 67/4/2 69/4/2 68/4/2
f 69/4/2 67/4/2 70/4/2
f 69/4/3 66/4/3 68/4/3
f 66/4/3 69/4/3 71/4/3
f 72/4/4 67/4/4 65/4/4
f 67/4/4 72/4/4 70/4/4
f 72/4/5 66/4/5 71/4/5
f 66/4/5 72/4/5 65/4/5
f 69/4/6 72/4/6 71/4/6
f 72/4/6 69/4/6 70/4/6
f 37/2/1 4/2/1 3/2/1
f 4/2/1 37/2/1 38/2/1
f 37/2/2 43/2/2 38/2/2
f 43/2/2 37/2/2 44/2/2
f 43/2/3 4/2/3 38/2/3
f 4/2/3 43/2/3 5/2/3
f 6/2/4 37/2/4 3/2/4
f 37/2/4 6/2/4 44/2/4
f 6/2/5 4/2/5 5/2/5
f 4/2/5 6/2/5 3/2/5
f 43/2/6 6/2/6 5/2/6
f 6/2/6 43/2/6 44/2/6
f 53/2/1 20/2/1 19/2/1
f 20/2/1 53/2/1 54/2/1
f 53/2/2 59/2/2 54/2/2
f 59/2/2 53/2/2 60/2/2
f 59/2/3 20/2/3 54/2/3
f 20/2/3 59/2/3 21/2/3
f 22/2/4 53/2/4 19/2/4
f 53/2/4 22/2/4 60/2/4
f 22/2/5 20/2/5 21/2/5
f 20/2/5 22/2/5 19/2/5
f 59/2/6 22/2/6 21/2/6
f 22/2/6 59/2/6 60/2/6
f 65/4/1 40/4/1 39/4/1
f 40/4/1 65/4/1 66/4/1
f 65/4/2 71/4/2 66/4/2
f 71/4/2 65/4/2 72/4/2
f 71/4/3 40/4/3 66/4/3
f 40/4/3 71/4/3 41/4/3
f 42/4/4 65/4/4 39/4/4
f 65/4/4 42/4/4 72/4/4
f 42/4/5 40/4/5 41/4/5
f 40/4/5 42/4/5 39/4/5
f 71/4/6 42/4/6 41/4/6
f 42/4/6 71/4/6 72/4/6

