# Created by Kenney (www.kenney.nl)

mtllib grass-01.mtl

v 4 -3 0.5
v 4 -3 -0.5
v 3 -3 0.5
v 3 -3 -0.5
v 3 1 -0.5
v 3 1 0.5
v 4 1 -0.5
v 4 1 0.5
v 3 2 0.5
v 3 2 -0.5
v 1 2 0.5
v 1 2 -0.5
v 1 3 -0.5
v 1 3 0.5
v 3 3 -0.5
v 3 3 0.5
v 2 3 0.5
v 2 3 -0.5
v 1 5 -0.5
v 1 5 0.5
v 2 5 -0.5
v 2 5 0.5
v 2 -3 0.5
v 2 -3 -0.5
v 1 -3 0.5
v 1 -3 -0.5
v 2 2 -0.5
v 2 2 0.5
v 0 -3 0.5
v 0 -3 -0.5
v -1 -3 0.5
v -1 -3 -0.5
v -1 4 -0.5
v -1 4 0.5
v 0 4 -0.5
v 0 4 0.5
v -1 2 0.5
v -1 2 -0.5
v -2 2 0.5
v -2 2 -0.5
v -2 3 -0.5
v -2 3 0.5
v -1 3 -0.5
v -1 3 0.5
v -2 -1 0.5
v -2 -1 -0.5
v -4 -1 0.5
v -4 -1 -0.5
v -4 0 -0.5
v -4 0 0.5
v -2 0 -0.5
v -2 0 0.5
v -3 0 0.5
v -3 0 -0.5
v -4 2 -0.5
v -4 2 0.5
v -3 2 -0.5
v -3 2 0.5
v -3 -3 0.5
v -3 -3 -0.5
v -4 -3 0.5
v -4 -3 -0.5
v -3 -1 -0.5
v -3 -1 0.5

vn 0 -1 0
vn -1 0 0
vn 0 0 -1
vn 0 0 1
vn 1 0 0
vn 0 1 0

vt 0.0625 0.0625

usemtl palette(Clone)

f 3/1/1 2/1/1 1/1/1
f 2/1/1 3/1/1 4/1/1
f 3/1/2 5/1/2 4/1/2
f 5/1/2 3/1/2 6/1/2
f 5/1/3 2/1/3 4/1/3
f 2/1/3 5/1/3 7/1/3
f 8/1/4 3/1/4 1/1/4
f 3/1/4 8/1/4 6/1/4
f 8/1/5 2/1/5 7/1/5
f 2/1/5 8/1/5 1/1/5
f 5/1/6 8/1/6 7/1/6
f 8/1/6 5/1/6 6/1/6
f 11/1/1 10/1/1 9/1/1
f 10/1/1 11/1/1 12/1/1
f 11/1/2 13/1/2 12/1/2
f 13/1/2 11/1/2 14/1/2
f 13/1/3 10/1/3 12/1/3
f 10/1/3 13/1/3 15/1/3
f 16/1/4 11/1/4 9/1/4
f 11/1/4 16/1/4 14/1/4
f 16/1/5 10/1/5 15/1/5
f 10/1/5 16/1/5 9/1/5
f 13/1/6 16/1/6 15/1/6
f 16/1/6 13/1/6 14/1/6
f 14/1/1 18/1/1 17/1/1
f 18/1/1 14/1/1 13/1/1
f 14/1/2 19/1/2 13/1/2
f 19/1/2 14/1/2 20/1/2
f 19/1/3 18/1/3 13/1/3
f 18/1/3 19/1/3 21/1/3
f 22/1/4 14/1/4 17/1/4
f 14/1/4 22/1/4 20/1/4
f 22/1/5 18/1/5 21/1/5
f 18/1/5 22/1/5 17/1/5
f 19/1/6 22/1/6 21/1/6
f 22/1/6 19/1/6 20/1/6
f 25/1/1 24/1/1 23/1/1
f 24/1/1 25/1/1 26/1/1
f 25/1/2 12/1/2 26/1/2
f 12/1/2 25/1/2 11/1/2
f 12/1/3 24/1/3 26/1/3
f 24/1/3 12/1/3 27/1/3
f 28/1/4 25/1/4 23/1/4
f 25/1/4 28/1/4 11/1/4
f 28/1/5 24/1/5 27/1/5
f 24/1/5 28/1/5 23/1/5
f 12/1/6 28/1/6 27/1/6
f 28/1/6 12/1/6 11/1/6
f 31/1/1 30/1/1 29/1/1
f 30/1/1 31/1/1 32/1/1
f 31/1/2 33/1/2 32/1/2
f 33/1/2 31/1/2 34/1/2
f 33/1/3 30/1/3 32/1/3
f 30/1/3 33/1/3 35/1/3
f 36/1/4 31/1/4 29/1/4
f 31/1/4 36/1/4 34/1/4
f 36/1/5 30/1/5 35/1/5
f 30/1/5 36/1/5 29/1/5
f 33/1/6 36/1/6 35/1/6
f 36/1/6 33/1/6 34/1/6
f 39/1/1 38/1/1 37/1/1
f 38/1/1 39/1/1 40/1/1
f 39/1/2 41/1/2 40/1/2
f 41/1/2 39/1/2 42/1/2
f 41/1/3 38/1/3 40/1/3
f 38/1/3 41/1/3 43/1/3
f 44/1/4 39/1/4 37/1/4
f 39/1/4 44/1/4 42/1/4
f 44/1/5 38/1/5 43/1/5
f 38/1/5 44/1/5 37/1/5
f 41/1/6 44/1/6 43/1/6
f 44/1/6 41/1/6 42/1/6
f 47/1/1 46/1/1 45/1/1
f 46/1/1 47/1/1 48/1/1
f 47/1/2 49/1/2 48/1/2
f 49/1/2 47/1/2 50/1/2
f 49/1/3 46/1/3 48/1/3
f 46/1/3 49/1/3 51/1/3
f 52/1/4 47/1/4 45/1/4
f 47/1/4 52/1/4 50/1/4
f 52/1/5 46/1/5 51/1/5
f 46/1/5 52/1/5 45/1/5
f 49/1/6 52/1/6 51/1/6
f 52/1/6 49/1/6 50/1/6
f 50/1/1 54/1/1 53/1/1
f 54/1/1 50/1/1 49/1/1
f 50/1/2 55/1/2 49/1/2
f 55/1/2 50/1/2 56/1/2
f 55/1/3 54/1/3 49/1/3
f 54/1/3 55/1/3 57/1/3
f 58/1/4 50/1/4 53/1/4
f 50/1/4 58/1/4 56/1/4
f 58/1/5 54/1/5 57/1/5
f 54/1/5 58/1/5 53/1/5
f 55/1/6 58/1/6 57/1/6
f 58/1/6 55/1/6 56/1/6
f 61/1/1 60/1/1 59/1/1
f 60/1/1 61/1/1 62/1/1
f 61/1/2 48/1/2 62/1/2
f 48/1/2 61/1/2 47/1/2
f 48/1/3 60/1/3 62/1/3
f 60/1/3 48/1/3 63/1/3
f 64/1/4 61/1/4 59/1/4
f 61/1/4 64/1/4 47/1/4
f 64/1/5 60/1/5 63/1/5
f 60/1/5 64/1/5 59/1/5
f 48/1/6 64/1/6 63/1/6
f 64/1/6 48/1/6 47/1/6

