# MagicaVoxel @ Ephtracy

# group
o 

# material
mtllib PulcinellaMask.mtl
usemtl palette

# normals
vn -1 0 0
vn 1 0 0
vn 0 0 1
vn 0 0 -1
vn 0 -1 0
vn 0 1 0

# texcoords
vt 0.876953 0.5
vt 0.958984 0.5

# verts
v -4.9 -2.45 -0.85
v -4.9 -2.45 -1.45
v -4.9 2.45 -0.85
v -4.9 2.45 -1.45
v -0.8 -0.35 -0.85
v -0.8 -0.35 -1.05
v -0.8 0.95 -0.85
v -0.8 0.95 -1.05
v -0.7 -2.45 1.45
v -0.7 -2.45 -0.85
v -0.7 -0.25 1.45
v -0.7 -0.25 -0.85
v 3.3 -0.35 -0.85
v 3.3 -0.35 -1.05
v 3.3 0.95 -0.85
v 3.3 0.95 -1.05
v -3.3 -0.35 -0.85
v -3.3 -0.35 -1.05
v -3.3 0.95 -0.85
v -3.3 0.95 -1.05
v 0.7 -2.45 1.45
v 0.7 -2.45 -0.85
v 0.7 -0.25 1.45
v 0.7 -0.25 -0.85
v 0.8 -0.35 -0.85
v 0.8 -0.35 -1.05
v 0.8 0.95 -0.85
v 0.8 0.95 -1.05
v 4.9 -2.45 -0.85
v 4.9 -2.45 -1.45
v 4.9 2.45 -0.85
v 4.9 2.45 -1.45
v -0.7 -2.45 1.45
v -0.7 -0.25 1.45
v 0.7 -2.45 1.45
v 0.7 -0.25 1.45
v -4.9 -2.45 -0.85
v -4.9 2.45 -0.85
v -3.3 -0.35 -0.85
v -3.3 0.95 -0.85
v -0.8 -0.35 -0.85
v -0.8 0.95 -0.85
v -0.7 -2.45 -0.85
v -0.7 -0.25 -0.85
v 0.7 -2.45 -0.85
v 0.7 -0.25 -0.85
v 0.8 -0.35 -0.85
v 0.8 0.95 -0.85
v 3.3 -0.35 -0.85
v 3.3 0.95 -0.85
v 4.9 -2.45 -0.85
v 4.9 2.45 -0.85
v -3.3 -0.35 -1.05
v -3.3 0.95 -1.05
v -0.8 -0.35 -1.05
v -0.8 0.95 -1.05
v 0.8 -0.35 -1.05
v 0.8 0.95 -1.05
v 3.3 -0.35 -1.05
v 3.3 0.95 -1.05
v -4.9 -2.45 -1.45
v -4.9 2.45 -1.45
v 4.9 -2.45 -1.45
v 4.9 2.45 -1.45
v -0.7 -2.45 1.45
v 0.7 -2.45 1.45
v -4.9 -2.45 -0.85
v -0.7 -2.45 -0.85
v 0.7 -2.45 -0.85
v 4.9 -2.45 -0.85
v -4.9 -2.45 -1.45
v 4.9 -2.45 -1.45
v -3.3 0.95 -0.85
v -0.8 0.95 -0.85
v 0.8 0.95 -0.85
v 3.3 0.95 -0.85
v -3.3 0.95 -1.05
v -0.8 0.95 -1.05
v 0.8 0.95 -1.05
v 3.3 0.95 -1.05
v -3.3 -0.35 -0.85
v -0.8 -0.35 -0.85
v 0.8 -0.35 -0.85
v 3.3 -0.35 -0.85
v -3.3 -0.35 -1.05
v -0.8 -0.35 -1.05
v 0.8 -0.35 -1.05
v 3.3 -0.35 -1.05
v -0.7 -0.25 1.45
v 0.7 -0.25 1.45
v -0.7 -0.25 -0.85
v 0.7 -0.25 -0.85
v -4.9 2.45 -0.85
v 4.9 2.45 -0.85
v -4.9 2.45 -1.45
v 4.9 2.45 -1.45

# faces
f 3/1/1 2/1/1 1/1/1
f 4/1/1 2/1/1 3/1/1
f 7/1/1 6/1/1 5/1/1
f 8/1/1 6/1/1 7/1/1
f 11/1/1 10/1/1 9/1/1
f 12/1/1 10/1/1 11/1/1
f 15/1/1 14/1/1 13/1/1
f 16/1/1 14/1/1 15/1/1
f 17/1/2 18/1/2 19/1/2
f 19/1/2 18/1/2 20/1/2
f 21/1/2 22/1/2 23/1/2
f 23/1/2 22/1/2 24/1/2
f 25/1/2 26/1/2 27/1/2
f 27/1/2 26/1/2 28/1/2
f 29/1/2 30/1/2 31/1/2
f 31/1/2 30/1/2 32/1/2
f 35/1/3 34/1/3 33/1/3
f 36/1/3 34/1/3 35/1/3
f 39/1/3 38/1/3 37/1/3
f 40/1/3 38/1/3 39/1/3
f 41/1/3 39/1/3 37/1/3
f 42/1/3 38/1/3 40/1/3
f 43/1/3 41/1/3 37/1/3
f 43/1/3 42/1/3 41/1/3
f 44/1/3 42/1/3 43/1/3
f 46/1/3 42/1/3 44/1/3
f 47/1/3 46/1/3 45/1/3
f 48/1/3 38/1/3 42/1/3
f 48/1/3 46/1/3 47/1/3
f 48/1/3 42/1/3 46/1/3
f 49/1/3 47/1/3 45/1/3
f 50/1/3 38/1/3 48/1/3
f 51/1/3 49/1/3 45/1/3
f 51/1/3 50/1/3 49/1/3
f 52/1/3 38/1/3 50/1/3
f 52/1/3 50/1/3 51/1/3
f 55/2/3 54/2/3 53/2/3
f 56/2/3 54/2/3 55/2/3
f 59/2/3 58/2/3 57/2/3
f 60/2/3 58/2/3 59/2/3
f 61/1/4 62/1/4 63/1/4
f 63/1/4 62/1/4 64/1/4
f 68/1/5 66/1/5 65/1/5
f 69/1/5 66/1/5 68/1/5
f 71/1/5 68/1/5 67/1/5
f 71/1/5 70/1/5 69/1/5
f 71/1/5 69/1/5 68/1/5
f 72/1/5 70/1/5 71/1/5
f 77/1/5 74/1/5 73/1/5
f 78/1/5 74/1/5 77/1/5
f 79/1/5 76/1/5 75/1/5
f 80/1/5 76/1/5 79/1/5
f 81/1/6 82/1/6 85/1/6
f 85/1/6 82/1/6 86/1/6
f 83/1/6 84/1/6 87/1/6
f 87/1/6 84/1/6 88/1/6
f 89/1/6 90/1/6 91/1/6
f 91/1/6 90/1/6 92/1/6
f 93/1/6 94/1/6 95/1/6
f 95/1/6 94/1/6 96/1/6
