# Created by Kenney (www.kenney.nl)

mtllib sand-castle.mtl

v 4 1 1
v 4 1 -1
v 2 1 1
v 2 1 -1
v 2 3 -1
v 2 3 1
v 4 3 -1
v 4 3 1
v 3 3 0.5
v 3 3 -0.5
v 2 3 0.5
v 2 3 -0.5
v 2 4 -0.5
v 2 4 0.5
v 3 4 -0.5
v 3 4 0.5
v 3 0 2
v 3 0 -2
v -4 0 2
v -4 0 -2
v -4 1 -2
v -4 1 2
v 3 1 -2
v 3 1 2
v 2 -2 2
v 2 -2 -2
v 1 -2 2
v 1 -2 -2
v 1 0 -2
v 1 0 2
v 2 0 -2
v 2 0 2
v 1 1 0.5
v 1 1 -0.5
v -1 1 0.5
v -1 1 -0.5
v -1 2 -0.5
v -1 2 0.5
v 1 2 -0.5
v 1 2 0.5
v 1 -2 1.5
v 1 -2 -1.5
v -1 -2 1.5
v -1 -2 -1.5
v -1 0 -1.5
v -1 0 1.5
v 1 0 -1.5
v 1 0 1.5
v -1 -2 2
v -1 -2 -2
v -4 -2 2
v -4 -2 -2
v -1 0 -2
v -1 0 2
v -2 3 0.5
v -2 3 -0.5
v -3 3 0.5
v -3 3 -0.5
v -3 4 -0.5
v -3 4 0.5
v -2 4 -0.5
v -2 4 0.5
v -3 1 1
v -3 1 -1
v -4 1 1
v -4 1 -1
v -4 3 -1
v -4 3 1
v -3 3 -1
v -3 3 1
v 4 -2 2
v 4 -2 -2
v 3 -2 2
v 3 -2 -2
v 4 1 -2
v 4 1 2
v -2 1 1
v -2 1 -1
v -2 3 -1
v -2 3 1

vn 0 -1 0
vn -1 0 0
vn 0 0 -1
vn 0 0 1
vn 1 0 0
vn 0 1 0

vt 0.0625 0.0625
vt 0.1875 0.0625

usemtl palette(Clone)

f 3/1/1 2/1/1 1/1/1
f 2/1/1 3/1/1 4/1/1
f 3/1/2 5/1/2 4/1/2
f 5/1/2 3/1/2 6/1/2
f 5/1/3 2/1/3 4/1/3
f 2/1/3 5/1/3 7/1/3
f 8/1/4 3/1/4 1/1/4
f 3/1/4 8/1/4 6/1/4
f 8/1/5 2/1/5 7/1/5
f 2/1/5 8/1/5 1/1/5
f 5/1/6 8/1/6 7/1/6
f 8/1/6 5/1/6 6/1/6
f 11/1/1 10/1/1 9/1/1
f 10/1/1 11/1/1 12/1/1
f 11/1/2 13/1/2 12/1/2
f 13/1/2 11/1/2 14/1/2
f 13/1/3 10/1/3 12/1/3
f 10/1/3 13/1/3 15/1/3
f 16/1/4 11/1/4 9/1/4
f 11/1/4 16/1/4 14/1/4
f 16/1/5 10/1/5 15/1/5
f 10/1/5 16/1/5 9/1/5
f 13/1/6 16/1/6 15/1/6
f 16/1/6 13/1/6 14/1/6
f 19/1/1 18/1/1 17/1/1
f 18/1/1 19/1/1 20/1/1
f 19/1/2 21/1/2 20/1/2
f 21/1/2 19/1/2 22/1/2
f 21/1/3 18/1/3 20/1/3
f 18/1/3 21/1/3 23/1/3
f 24/1/4 19/1/4 17/1/4
f 19/1/4 24/1/4 22/1/4
f 24/1/5 18/1/5 23/1/5
f 18/1/5 24/1/5 17/1/5
f 21/1/6 24/1/6 23/1/6
f 24/1/6 21/1/6 22/1/6
f 27/1/1 26/1/1 25/1/1
f 26/1/1 27/1/1 28/1/1
f 27/1/2 29/1/2 28/1/2
f 29/1/2 27/1/2 30/1/2
f 29/1/3 26/1/3 28/1/3
f 26/1/3 29/1/3 31/1/3
f 32/1/4 27/1/4 25/1/4
f 27/1/4 32/1/4 30/1/4
f 32/1/5 26/1/5 31/1/5
f 26/1/5 32/1/5 25/1/5
f 29/1/6 32/1/6 31/1/6
f 32/1/6 29/1/6 30/1/6
f 35/1/1 34/1/1 33/1/1
f 34/1/1 35/1/1 36/1/1
f 35/1/2 37/1/2 36/1/2
f 37/1/2 35/1/2 38/1/2
f 37/1/3 34/1/3 36/1/3
f 34/1/3 37/1/3 39/1/3
f 40/1/4 35/1/4 33/1/4
f 35/1/4 40/1/4 38/1/4
f 40/1/5 34/1/5 39/1/5
f 34/1/5 40/1/5 33/1/5
f 37/1/6 40/1/6 39/1/6
f 40/1/6 37/1/6 38/1/6
f 43/2/1 42/2/1 41/2/1
f 42/2/1 43/2/1 44/2/1
f 43/2/2 45/2/2 44/2/2
f 45/2/2 43/2/2 46/2/2
f 45/2/3 42/2/3 44/2/3
f 42/2/3 45/2/3 47/2/3
f 48/2/4 43/2/4 41/2/4
f 43/2/4 48/2/4 46/2/4
f 48/2/5 42/2/5 47/2/5
f 42/2/5 48/2/5 41/2/5
f 45/2/6 48/2/6 47/2/6
f 48/2/6 45/2/6 46/2/6
f 51/1/1 50/1/1 49/1/1
f 50/1/1 51/1/1 52/1/1
f 51/1/2 20/1/2 52/1/2
f 20/1/2 51/1/2 19/1/2
f 20/1/3 50/1/3 52/1/3
f 50/1/3 20/1/3 53/1/3
f 54/1/4 51/1/4 49/1/4
f 51/1/4 54/1/4 19/1/4
f 54/1/5 50/1/5 53/1/5
f 50/1/5 54/1/5 49/1/5
f 20/1/6 54/1/6 53/1/6
f 54/1/6 20/1/6 19/1/6
f 57/1/1 56/1/1 55/1/1
f 56/1/1 57/1/1 58/1/1
f 57/1/2 59/1/2 58/1/2
f 59/1/2 57/1/2 60/1/2
f 59/1/3 56/1/3 58/1/3
f 56/1/3 59/1/3 61/1/3
f 62/1/4 57/1/4 55/1/4
f 57/1/4 62/1/4 60/1/4
f 62/1/5 56/1/5 61/1/5
f 56/1/5 62/1/5 55/1/5
f 59/1/6 62/1/6 61/1/6
f 62/1/6 59/1/6 60/1/6
f 65/1/1 64/1/1 63/1/1
f 64/1/1 65/1/1 66/1/1
f 65/1/2 67/1/2 66/1/2
f 67/1/2 65/1/2 68/1/2
f 67/1/3 64/1/3 66/1/3
f 64/1/3 67/1/3 69/1/3
f 70/1/4 65/1/4 63/1/4
f 65/1/4 70/1/4 68/1/4
f 70/1/5 64/1/5 69/1/5
f 64/1/5 70/1/5 63/1/5
f 67/1/6 70/1/6 69/1/6
f 70/1/6 67/1/6 68/1/6
f 73/1/1 72/1/1 71/1/1
f 72/1/1 73/1/1 74/1/1
f 73/1/2 23/1/2 74/1/2
f 23/1/2 73/1/2 24/1/2
f 23/1/3 72/1/3 74/1/3
f 72/1/3 23/1/3 75/1/3
f 76/1/4 73/1/4 71/1/4
f 73/1/4 76/1/4 24/1/4
f 76/1/5 72/1/5 75/1/5
f 72/1/5 76/1/5 71/1/5
f 23/1/6 76/1/6 75/1/6
f 76/1/6 23/1/6 24/1/6
f 25/1/1 74/1/1 73/1/1
f 74/1/1 25/1/1 26/1/1
f 25/1/2 31/1/2 26/1/2
f 31/1/2 25/1/2 32/1/2
f 31/1/3 74/1/3 26/1/3
f 74/1/3 31/1/3 18/1/3
f 17/1/4 25/1/4 73/1/4
f 25/1/4 17/1/4 32/1/4
f 17/1/5 74/1/5 18/1/5
f 74/1/5 17/1/5 73/1/5
f 31/1/6 17/1/6 18/1/6
f 17/1/6 31/1/6 32/1/6
f 63/1/1 78/1/1 77/1/1
f 78/1/1 63/1/1 64/1/1
f 63/1/2 69/1/2 64/1/2
f 69/1/2 63/1/2 70/1/2
f 69/1/3 78/1/3 64/1/3
f 78/1/3 69/1/3 79/1/3
f 80/1/4 63/1/4 77/1/4
f 63/1/4 80/1/4 70/1/4
f 80/1/5 78/1/5 79/1/5
f 78/1/5 80/1/5 77/1/5
f 69/1/6 80/1/6 79/1/6
f 80/1/6 69/1/6 70/1/6

